# xmcd CD Database Entry
#
# Track frame offsets:
# 150
# 17887
# 37317
# 55780
# 75930
# 95715
# 117540
# 135212
# 151115
# 169172
# 186950
#
# Disc length: 2729 seconds
#
# Revision: 1
# Processed by: cddbd v1.5.1PL0 Copyright (c) Steve Scherf et al.
# Submitted via: tcd 2.0b
#
DISCID=890aa70b
DTITLE=???? - ??? ??? ?? ??
DYEAR=1900
DGENRE=
TTITLE0=????Play Boy
TTITLE1=???Steady Boy
TTITLE2=???????
TTITLE3=
TTITLE4=??????
TTITLE5=????????
TTITLE6=???????????
TTITLE7=??????
TTITLE8=????China Town
TTITLE9=BARCELONA
TTITLE10=?? Bye Bye
EXTD=
EXTT0=
EXTT1=
EXTT2=
EXTT3=
EXTT4=
EXTT5=
EXTT6=
EXTT7=
EXTT8=
EXTT9=
EXTT10=
PLAYORDER=
